<?xml version="1.0" encoding="utf-8"?>
<!-- Generator: Adobe Illustrator 28.0.0, SVG Export Plug-In . SVG Version: 6.00 Build 0)  -->
<svg version="1.1" id="Layer_1" xmlns="http://www.w3.org/2000/svg" xmlns:xlink="http://www.w3.org/1999/xlink" x="0px" y="0px"
	 viewBox="0 0 154.3 45.4" style="enable-background:new 0 0 154.3 45.4;" xml:space="preserve">
<style type="text/css">
	.st0{fill:#FFFFFF;}
	.st1{font-family:'Roboto-Regular';}
	.st2{font-size:30.0487px;}
</style>
<text transform="matrix(0.7825 0 0 1 65.1616 33.9609)" class="st0 st1 st2">MOVEO</text>
<path class="st0" d="M30,0.6c-4.9,0.6-9.3,2.8-12.7,6.3c-3.4,3.4-5.4,7.7-6,12.4c-0.1,1.1-0.1,3.6,0,4.8c1.2,9.2,8.1,16.5,17.4,18.3
	c1.5,0.3,2.2,0.4,4.2,0.4c1.5,0,2.2,0,2.9-0.1c2.9-0.4,5.2-1.2,7.7-2.5c1.1-0.6,2.9-1.9,3.8-2.7l0.4-0.3l-0.3,0.3
	c-0.5,0.6-2,2-2.7,2.6c-3.8,3.1-8.2,4.9-13.2,5.3c-1.9,0.2-4.9-0.1-6.8-0.5c-4.3-1-8-3-11.1-6c-3.7-3.6-6-8.2-6.6-13.3
	c-0.2-1.2-0.2-4,0-5.3c0.5-4.2,2.1-8,4.8-11.4c0.8-1,2.7-2.8,3.7-3.6c1.1-0.9,2.4-1.6,3.7-2.3c2.7-1.4,4.9-2,7.9-2.4
	c1.1-0.1,1.2-0.1,2.6-0.1l1.4,0L30,0.6z M36.2,0.7c0.6,0.1,0.9,0.5,0.9,0.9c0,0.2-0.1,0.4-0.1,0.5c-0.1,0.1-0.1,0.2-0.1,0.2
	c0.1,0.1-0.5,0.3-0.9,0.3c-0.3,0-0.5,0-1.1-0.2c-1.5-0.5-1.6-0.5-2.8-0.6c-1.1,0-2.5,0-3.3,0.2c-0.4,0.1,0.5-0.4,1.4-0.6
	c0.8-0.3,1.9-0.5,3-0.6C33.9,0.6,35.9,0.6,36.2,0.7z M47.9,1.1c0.8,0.2,1.2,0.8,0.8,1.5c-0.4,0.8-1.3,0.9-3,0.5
	c-1.5-0.4-3.1-0.3-5.6,0.3c-0.6,0.1-1.2,0.3-1.2,0.2c0,0,1.2-0.8,2-1.1C43.2,1.5,46.5,0.8,47.9,1.1z M33.4,3.7
	c0.5,0.2,0.7,0.4,0.8,0.7c0.1,0.4,0,0.8-0.5,1.3c-0.5,0.4-1.2,0.8-2.7,1.4c-1.3,0.5-1.9,0.9-2,1.5c0,0.2,0,0.3,0.2,0.5
	c0.2,0.3,0.2,0.3,0.9,0.3c0.7,0,1-0.1,2.3-0.9c0.9-0.6,1.7-0.9,3.5-1.4c2-0.5,2.1-0.6,3.9-1.5c0.8-0.4,1.8-0.9,2.3-1
	c0.7-0.2,0.9-0.3,1.6-0.3c0.7,0,0.9,0,1.3,0.2c0.6,0.2,1.1,0.6,1.2,0.9c0.2,0.6-0.2,1-1.6,1.5c-0.9,0.3-1.2,0.6-1.1,1
	c0,0.4,0.3,0.9,0.7,1.2c0.5,0.4,1.3,0.8,3,1.3c1.7,0.6,2.5,0.9,3,1.3c0.4,0.3,0.6,0.9,0.6,1.3c0,0.8-0.3,1.2-0.9,1.2
	c-0.5,0-0.9-0.3-1.2-0.8c-0.4-0.6-0.9-1-1.9-1.5c-0.5-0.3-1.3-0.7-1.7-1c-1.7-1.2-3.1-1.8-5-1.8c-1.4,0-2.1,0.2-4.6,1.7
	c-2.1,1.2-3.1,1.6-4.4,1.6c-1,0-1.8-0.1-3-0.6c-2-0.8-3-1-4.8-1c-1.5,0-2,0.1-3.3,0.5c-2.4,0.8-4.7,3.2-5.9,6.1l-0.3,0.6l0-0.3
	c0-0.4,0.1-1.4,0.3-2.2c0.5-2,1.5-4.1,2.9-6c0.6-0.7,1.8-2,2.5-2.6c2.4-1.9,5.5-3,9.8-3.3C31.6,3.5,32.8,3.5,33.4,3.7z M26.1,14.6
	c0.7,0.3,1,1,0.8,1.5c-0.2,0.4-0.6,0.7-1.1,0.8c-0.7,0.2-3.1,1-3.1,1c0,0-0.1,0-0.1,0.1c0,0-0.4,0.2-0.8,0.4
	c-0.9,0.4-1.4,0.8-1.9,1.3c-0.5,0.5-0.7,0.9-0.6,1.1c0.1,0.2,0.4,0.1,1-0.1c0.4-0.1,0.6-0.2,0.8-0.2c0.3,0.1,0.8,0.4,0.7,0.5
	c0,0,0,0.1,0,0.1c0.1,0,0.1,0.1,0,0.6c-0.1,0.6-0.8,2.1-1,2c0,0-0.1,0,0,0c0,0,0,0.1-0.1,0.2c-0.3,0.4-0.9,1.5-1.1,1.9
	c-0.1,0.3-0.3,0.5-0.3,0.5c0,0-0.1,0,0,0.1c0,0-0.1,0.3-0.2,0.6c-0.1,0.3-0.3,0.9-0.4,1.4c-0.2,0.8-0.2,0.9-0.2,2.2
	c0,1.3,0,1.4,0.2,2.1c0.1,0.4,0.3,0.9,0.4,1.1c0.1,0.2,0.2,0.4,0.1,0.5s0,0.1,0,0.1c0.1,0,0.7,1,0.7,1.1c0,0,0,0.1,0.1,0
	c0,0,0.1,0,0.1,0c0,0.1,0.6,0.8,1.3,1.4c0.3,0.3,0.5,0.6,0.5,0.6c0,0,0,0,0,0c0,0,0.2,0.1,0.4,0.2l0.3,0.2L22,37.6
	c-0.3-0.1-0.5-0.2-0.6-0.3c-0.3-0.1-1.2-0.7-1.1-0.8c0-0.1,0-0.1,0,0c-0.1,0.1-0.5-0.1-0.5-0.2c0,0,0-0.1-0.1-0.1
	c-0.1,0-0.4-0.2-0.4-0.3c0,0,0,0,0.1,0c0.1,0,0.1,0,0,0c0,0-0.1-0.1-0.2,0c-0.1,0.1-1.5-1.3-1.4-1.4c0-0.1,0-0.1,0-0.1
	c-0.1,0-0.6-0.6-0.6-0.7c0,0,0-0.1-0.1-0.1c0,0-0.2-0.3-0.4-0.6c-0.3-0.5-0.5-0.8-1-1.6c-0.3-0.5-0.8-1.8-0.8-1.9c0,0,0-0.1,0-0.1
	c-0.1,0-0.2-0.4-0.6-1.6c-0.2-0.6-0.4-1.7-0.5-2.6c-0.2-1.5,0.1-4.7,0.3-4.6c0,0,0,0,0-0.1c0-0.1,0-0.3,0.1-0.4
	c0.1-0.2,0.1-0.4,0.2-0.4c0-0.2,0.4-0.8,0.4-0.8c0,0,0.1-0.1,0.1-0.1c0-0.3,0.6-1.1,0.7-1c0,0,0.1,0,0,0c-0.1-0.1,1-1.2,1.1-1.2
	c0,0,0.1,0,0.1-0.1c0-0.1,1.2-1,1.9-1.2c1.2-0.5,1.8-0.6,4-0.9c0.1,0,0.8,0,1.6,0C25.6,14.4,25.6,14.4,26.1,14.6z M45.8,15.8
	c1.9,0.1,3.1,0.3,3.7,0.5c1,0.4,2.2,1.2,2.9,1.9c0.2,0.2,0.4,0.4,0.4,0.3c0,0,0,0,0.1,0.1c0.7,0.8,0.8,0.9,0.8,1c0,0.1,0,0.1,0,0
	c0.1-0.1,0.1-0.1,0.2,0C54,19.9,54,20,54,20c0,0,0,0,0,0s0.2,0.2,0.4,0.4l0.3,0.4l0.3-0.4c0.2-0.2,0.3-0.4,0.3-0.4
	c0,0,0-0.1,0.1-0.1c0,0,0.2-0.1,0.3-0.2c0.1-0.1,0.3-0.1,0.3-0.1c0.1,0,0.1,0,0,0c-0.1-0.1,1.4-0.3,2.7-0.2c1.4,0,1.8,0.2,1.4,0.5
	c-0.1,0.1-0.1,0.1,0,0.1c0.3-0.2-0.3,0.6-0.8,0.9c-0.6,0.4-0.8,0.5-1.8,0.4c-1.2-0.1-2.3-0.1-2.2,0c0,0,0.4,0.1,0.8,0.2
	c0.4,0.1,0.8,0.2,0.9,0.2c0.1,0,0.1,0.1,0.1,0c0,0,0.6,0.1,1,0.3c0.5,0.2,0.9,0.6,1.1,0.9c0.5,1,0.8,3.6,0.8,7.6v1.6l0.2,0.1
	c0.2,0.1,0.2,0.1,0.2,0.6c0,0.6-0.2,1.3-0.6,1.4c-0.2,0.1-0.3,0.2-0.3,0.6c-0.1,0.8,0.2,0.7-4.2,0.8c-7.9,0.1-22.7,0.2-24,0.2
	c-0.7,0-1.9,0-2.6-0.1l-1.3,0l1.2-0.1c1.1-0.1,7.9-0.2,19.9-0.4c2.6,0,4.8-0.1,4.8,0c0,0,0.1-0.2,0.1-0.5v-0.5l-6.1,0
	c-3.4,0-9.4,0-13.4,0.1c-4,0-7.4,0-7.5,0c-0.2,0-0.2-0.1,0.2-0.2c0.2-0.1,0.7-0.2,0.9-0.2c0.3,0,3.9-0.1,8-0.2
	c12.1-0.1,17.2-0.2,17.4-0.4c0.1,0,0.1-0.1,0-0.4L53,32.8l-3.8-0.1c-6.9-0.2-8.6-0.2-11.7-0.3c-0.9,0-1.9-0.1-2-0.1
	c-0.2,0-0.3,0-0.2-0.1c0.1,0,3.1-0.1,6.7-0.2c3.6,0,7.4-0.1,8.4-0.1l1.8-0.1l-0.5-0.4L51.1,31h-1.7c-2.8,0-11.6-0.2-13.9-0.4l-1-0.1
	l0.9,0c0.5,0,4.1,0,8,0c6.7,0,7.1,0,6.9-0.1c-0.1-0.1-0.3-0.2-0.3-0.3c-0.1-0.1-0.2-0.1-0.2-0.1c0,0-0.2,0-0.3-0.1
	c-0.7-0.2-9.1-0.5-13-0.5h-2.2l-0.4,0.2c-0.2,0.1-0.4,0.2-0.4,0.2c0,0-0.1,0,0,0.1c0,0.1-0.2,0.3-0.5,0.5c-0.3,0.2-0.5,0.4-0.6,0.5
	c-0.1,0.1-0.1,0.1-0.1,0c0-0.2,1.4-1.5,1.5-1.4c0,0,0.1,0,0.1-0.1c0-0.1,0.1-0.1,0.1,0c0.1,0.1,0.1,0.1,0.1,0c0-0.4,1.4-0.5,8.5-0.5
	c6,0,7.5,0.1,8.4,0.6c0.6,0.3,1.4,0.9,2,1.5c0.2,0.2,0.5,0.4,0.5,0.5c0.3,0.3,1.2,1.3,1.4,1.7c0.1,0.2,0.2,0.5,0.2,0.6l0,0.3h2.4
	h2.4l0.1-0.3c0.1-0.2,0.1-0.4,0.2-0.6l0.1-0.3h-0.9c-0.9,0-2.6-0.1-3.1-0.2c-0.2,0-0.2-0.1-0.2-0.1c0.1-0.1,2.1-0.3,2.2-0.2
	c0,0,0.3,0,0.6,0c0.4,0,0.5,0,0.5-0.1c0.1-0.3,0.2-4.3,0.2-4.9c0-0.5-0.1-0.6-0.2-0.5c0,0.1-0.1,0.1-0.2,0.1c0,0,0,0,0,0
	c0,0.1,0,0.2,0,0.2c-0.2,0.2-0.7,0.8-0.6,0.7c0-0.1,0,0-0.2,0.1c-0.5,0.5-1,0.6-3.8,0.8c-2.4,0.1-3.9,0-3.9-0.4
	c0-0.1,0.1-0.2,0.1-0.3c0.2-0.3,0.9-0.9,0.9-0.9c0,0,0,0,0.1-0.1c0.2-0.3,2.2-1.5,2.2-1.4c0,0,0,0,0.1,0c0.1-0.1,0.5-0.3,0.6-0.2
	c0,0,0.1,0,0,0c-0.1-0.1,0.9-0.4,2-0.6c0.7-0.1,1.2-0.2,1.8-0.1l0.9,0l0-0.2c0-0.1-0.1-0.4-0.1-0.5C59,23.8,59,23.7,59,23.6
	c0,0,0-0.1-0.1-0.1c-0.1-0.1-0.1-0.1-0.1-0.2s-0.1-0.1-0.1-0.2c-0.1-0.1-0.1-0.1-0.1-0.2c0.1-0.1-1.2-0.7-2-0.9
	c-0.4-0.1-1.1-0.2-1.5-0.3c-0.4,0-0.9-0.1-1.2-0.1c-0.6-0.1-2.8,0-3.2,0.2c-0.2,0.1-0.4,0.1-0.4,0.1c0,0-0.2,0.2-0.4,0.4
	c-0.2,0.3-0.4,0.5-0.5,0.6c-0.1,0.1-0.1,0.1-0.1,0.2c0,0.1-0.3,0.5-1.7,2.6c-0.3,0.5-0.6,0.8-0.6,0.8c0,0,0,0,0,0c0,0,0,0.2-0.1,0.3
	c-0.2,0.2-0.2,0.2-0.2,0.1c0-0.2,0.7-1.8,0.8-1.8c0,0,0.1,0,0-0.1c-0.1-0.1,0.2-0.6,0.3-0.6c0,0,0.1,0,0,0c0,0,0.1-0.4,0.2-0.7
	c0.3-0.8,0.3-1.2,0-1.3c-0.6-0.3-1.2-0.3-6.2-0.3c-3,0-5.2,0-5.7,0.1c-0.7,0.1-0.7,0.1-1,0.3c-0.2,0.2-0.2,0.3-0.2,0.6
	c0,0.2,0,0.4,0.1,0.4c0.1,0,0.2,0.4,0.2,0.6c0,0.1,0,0.1,0,0.1c0.1,0,1.1,2.3,1.1,2.6c0,0.2,0,0.3-0.1,0.1c-0.1-0.1-0.2-0.2-0.2-0.5
	c0,0,0,0-0.1,0c-0.1,0-0.3-0.3-0.3-0.4c0,0,0-0.1-0.1-0.1c-0.1-0.1-0.8-1.2-0.7-1.3c0,0,0-0.1,0,0c-0.1,0.1-0.7-0.9-0.7-1
	c0,0,0,0,0,0c0,0-0.2-0.1-0.3-0.3c-0.1-0.2-0.3-0.4-0.5-0.6c-0.3-0.3-0.7-0.4-2.6-0.7c-0.6-0.1-1.3-0.2-1.4-0.2c-0.1,0,0.8,0,2.1,0
	c2.1,0,2.3,0,2.5-0.1c0.1-0.1,0.3-0.2,0.3-0.2c0,0,0.2-0.1,0.3-0.2c0.2-0.1,0.8-0.1,4.4-0.1c2.7,0,4.2,0,4.2-0.1
	c0-0.1-0.2-0.4-0.5-0.6c-0.1-0.1-0.1-0.1,0-0.2c0-0.1,0-0.1,0,0c0,0-0.3-0.2-0.5-0.4c-0.7-0.8-1.9-2.2-1.9-2.2c0,0-0.1-0.1-0.2-0.3
	c-0.3-0.3-0.8-0.9-0.8-1c0-0.3-5.1,0.1-6.5,0.4c-0.4,0.1-1.2,0.4-1.2,0.4c-0.1,0.1-0.5,0.4-0.5,0.3c0,0,0,0-0.1,0
	c-0.1,0.1-1.8,1.3-1.9,1.3c-0.1,0-0.1,0-0.1,0.1c0,0-0.2,0.3-0.6,0.6c-0.5,0.4-0.6,0.5-0.4,0.2c0.5-0.6,0.9-1.1,1-1.1
	c0,0,0.1,0,0.1-0.1c0-0.1,0-0.1,0.1-0.1c0.1,0,0.1,0,0.1-0.1c-0.1-0.2,2.2-2,2.5-1.9c0.1,0,0.1,0,0,0c-0.1-0.1,0.7-0.4,1.5-0.5
	c0.6-0.1,2.9-0.3,4-0.4C39.4,15.7,44.4,15.7,45.8,15.8z M28.2,26.2C28.3,26.2,28.3,26.2,28.2,26.2c0,0.1-0.1,0-0.2,0s-0.1-0.1,0-0.1
	C28.1,26.1,28.2,26.1,28.2,26.2z M31.1,27.1c0.1,0.1,0.2,0.1,0.3,0.1c0.3,0,0.5,0.1,0.4,0.2c0,0.1,0,0.1,0,0c0,0,0.3,0.1,0.6,0.2
	c0.6,0.3,0.7,0.4,0.7,0.6c0,0.1-0.3,0.4-0.4,0.3c0,0-0.1,0-0.1,0.1s-0.8,0.1-2.4,0.1c-1.3,0-2.4,0-2.4-0.1c0-0.1,0.7-0.2,2-0.2
	c1.9,0,2.8-0.1,2.7-0.3c0,0-0.2-0.2-0.4-0.3c-0.2-0.1-0.4-0.2-0.3-0.3c0,0,0,0,0,0c-0.1,0-0.2,0-0.4-0.1c-0.4-0.2-1.5-0.7-1.6-0.7
	c-0.1,0-1.5-0.5-1.5-0.6C28.4,26.1,30.8,27,31.1,27.1z M56.8,29.9c0.8,0.6,0.4,1.9-0.6,1.9c-0.3,0-0.8-0.2-0.8-0.3
	c0,0-0.1-0.1-0.1-0.2c-0.1-0.1-0.1-0.1,0-0.1c0.1,0,0.1,0,0.1,0.1c0,0.1,0.2,0.2,0.4,0.2c0,0,0.2-0.1,0.3-0.2
	c0.2-0.2,0.2-0.2,0.2-0.5c0-0.4-0.2-0.5-0.6-0.5c-0.3,0-0.6,0.3-0.5,0.6c0,0.2,0,0.2-0.1,0.2c0,0-0.1-0.2-0.1-0.3
	C55.1,30,56.1,29.4,56.8,29.9z"/>
</svg>
